<svg width="16" height="14" viewBox="0 0 16 14" fill="none" xmlns="http://www.w3.org/2000/svg">
<path d="M0.5 4.3C0.499908 3.76178 0.607097 3.22893 0.815302 2.73261C1.02351 2.23629 1.32855 1.78645 1.71261 1.40937C2.09667 1.0323 2.55203 0.735557 3.05209 0.536492C3.55215 0.337428 4.08687 0.240033 4.625 0.25C5.26172 0.246619 5.89189 0.378602 6.47374 0.637203C7.05559 0.895804 7.57584 1.27512 8 1.75C8.42416 1.27512 8.94441 0.895804 9.52626 0.637203C10.1081 0.378602 10.7383 0.246619 11.375 0.25C11.9131 0.240033 12.4479 0.337428 12.9479 0.536492C13.448 0.735557 13.9033 1.0323 14.2874 1.40937C14.6714 1.78645 14.9765 2.23629 15.1847 2.73261C15.3929 3.22893 15.5001 3.76178 15.5 4.3C15.5 8.317 10.7157 11.35 8 13.75C5.29025 11.3298 0.5 8.32 0.5 4.3Z" fill="black"/>
</svg>
